<svg width="36" height="36" viewBox="0 0 36 36" fill="none" xmlns="http://www.w3.org/2000/svg">
<path d="M0 0H36V36H0V0Z" fill="white"/>
<path d="M17.6514 20.8049C17.7996 20.5481 18.1703 20.5481 18.3185 20.8049L25.1848 32.6976C25.3331 32.9544 25.1478 33.2754 24.8512 33.2754H11.1187C10.8222 33.2754 10.6368 32.9544 10.7851 32.6976L17.6514 20.8049Z" fill="#1A2833"/>
<path d="M28.1924 18.0442C28.1924 19.3847 27.9284 20.712 27.4154 21.9505C26.9024 23.1889 26.1506 24.3142 25.2027 25.262C24.2548 26.2099 23.1296 26.9618 21.8911 27.4747C20.6527 27.9877 19.3254 28.2518 17.9849 28.2518C16.6444 28.2518 15.3171 27.9877 14.0786 27.4747C12.8402 26.9618 11.7149 26.2099 10.7671 25.262C9.8192 24.3142 9.06732 23.1889 8.55435 21.9505C8.04137 20.712 7.77734 19.3847 7.77734 18.0442L17.9849 18.0442H28.1924Z" fill="#1A2833"/>
<line x1="7.98047" y1="16.2361" x2="27.989" y2="16.2361" stroke="#1A2833" stroke-width="2.46094" stroke-linecap="round"/>
<line x1="9.18359" y1="4.63306" x2="26.7862" y2="4.63306" stroke="#1A2833" stroke-width="2.8125" stroke-linecap="round"/>
<rect x="9.28613" y="6.03931" width="17.3978" height="8.66678" fill="#1A2833"/>
<circle cx="17.9685" cy="10.0767" r="3.86795" fill="white"/>
<rect x="16.6523" y="4.85156" width="2.63292" height="1.03145" rx="0.28125" fill="white"/>
<line x1="17.3677" y1="5.36719" x2="17.3677" y2="8.02725" stroke="white" stroke-width="0.5625"/>
<line x1="18.6436" y1="5.31299" x2="18.6436" y2="7.97305" stroke="white" stroke-width="0.5625"/>
<circle cx="17.969" cy="10.0767" r="3.27079" fill="#1A2833"/>
<circle cx="17.9686" cy="10.0767" r="2.53792" fill="white"/>
<path d="M17.9824 7.97314L17.9824 10.2532" stroke="#1A2833" stroke-width="0.703125" stroke-linecap="round"/>
<path d="M16.5708 10.2532H17.9823" stroke="#1A2833" stroke-width="0.703125" stroke-linecap="round"/>
</svg>
