<svg width="24" height="31" viewBox="0 0 24 31" fill="none" xmlns="http://www.w3.org/2000/svg">
<path d="M11.6514 17.8049C11.7996 17.5481 12.1703 17.5481 12.3185 17.8049L19.1848 29.6976C19.3331 29.9544 19.1478 30.2754 18.8512 30.2754H5.11867C4.82216 30.2754 4.63683 29.9544 4.78509 29.6976L11.6514 17.8049Z" fill="#1A2833"/>
<path d="M22.1924 15.0442C22.1924 16.3847 21.9284 17.712 21.4154 18.9505C20.9024 20.1889 20.1506 21.3142 19.2027 22.262C18.2548 23.2099 17.1296 23.9618 15.8911 24.4747C14.6527 24.9877 13.3254 25.2518 11.9849 25.2518C10.6444 25.2518 9.31706 24.9877 8.07863 24.4747C6.84019 23.9618 5.71492 23.2099 4.76706 22.262C3.8192 21.3142 3.06732 20.1889 2.55435 18.9505C2.04137 17.712 1.77734 16.3847 1.77734 15.0442L11.9849 15.0442H22.1924Z" fill="#1A2833"/>
<line x1="1.98047" y1="13.2361" x2="21.989" y2="13.2361" stroke="#1A2833" stroke-width="2.46094" stroke-linecap="round"/>
<line x1="3.18359" y1="1.63306" x2="20.7862" y2="1.63306" stroke="#1A2833" stroke-width="2.8125" stroke-linecap="round"/>
<rect x="3.28613" y="3.03931" width="17.3978" height="8.66678" fill="#1A2833"/>
<circle cx="11.9685" cy="7.07669" r="3.86795" fill="white"/>
<rect x="10.6523" y="1.85156" width="2.63292" height="1.03145" rx="0.28125" fill="white"/>
<line x1="11.3677" y1="2.36719" x2="11.3677" y2="5.02725" stroke="white" stroke-width="0.5625"/>
<line x1="12.6436" y1="2.31299" x2="12.6436" y2="4.97305" stroke="white" stroke-width="0.5625"/>
<circle cx="11.969" cy="7.0767" r="3.27079" fill="#1A2833"/>
<circle cx="11.9686" cy="7.07674" r="2.53792" fill="white"/>
<path d="M11.9824 4.97314L11.9824 7.2532" stroke="#1A2833" stroke-width="0.703125" stroke-linecap="round"/>
<path d="M10.5708 7.25317H11.9823" stroke="#1A2833" stroke-width="0.703125" stroke-linecap="round"/>
</svg>
